<svg xmlns="http://www.w3.org/2000/svg" class="svg-icon" style="width: 1em; height: 1em;vertical-align: middle;fill:#542437;overflow: hidden;" viewBox="0 0 1024 1024" version="1.1"><path d="M275.681468 968.553688h182.140477a27.525872 27.525872 0 0 0 27.441321-27.441321 27.516477 27.516477 0 0 0-27.441321-27.441321H275.681468c-58.997431 0-107.022092-48.024661-107.022092-107.031486V195.010936c0-58.997431 48.015266-107.022092 107.022092-107.022092h487.424c58.997431 0 107.022092 48.015266 107.022092 107.022092v224.312367a27.525872 27.525872 0 0 0 27.441321 27.441321 27.516477 27.516477 0 0 0 27.441321-27.441321V195.010936c0-89.181945-72.713394-161.904734-161.89534-161.904734H275.681468c-89.181945 0-161.904734 72.722789-161.904734 161.904734v611.628624c0.685798 89.181945 72.722789 161.914128 161.904734 161.914128z" fill="#0c65fa"/><path d="M290.017468 294.141651h398.23266a27.525872 27.525872 0 0 0 27.441322-27.441321 27.516477 27.516477 0 0 0-27.441322-27.441321h-398.23266a27.525872 27.525872 0 0 0-27.441321 27.441321 27.525872 27.525872 0 0 0 27.441321 27.441321zM546.928734 483.985615a27.525872 27.525872 0 0 0-27.450716-27.441321H290.017468c-15.08756 0-27.441321 12.344367-27.441321 27.441321s12.344367 27.441321 27.441321 27.441321h228.784147c15.773358-0.009394 28.127119-12.353761 28.127119-27.441321zM290.017468 673.838972c-15.08756 0-27.441321 12.344367-27.441321 27.441322s12.344367 27.441321 27.441321 27.441321h70.317798c15.08756 0 27.441321-12.344367 27.441321-27.441321s-12.344367-27.441321-27.441321-27.441322h-70.317798zM715.353248 514.893505c-119.34767 0-217.125578 97.204844-217.125578 217.125578 0 119.920734 97.214239 217.134972 217.125578 217.134972 119.338275 0 217.134972-97.223633 217.134972-217.134972 0-119.338275-97.223633-217.125578-217.134972-217.125578z m0 383.643009c-91.756037 0-165.953761-74.18833-165.953762-165.953762 0-91.756037 74.761394-165.953761 165.953762-165.953761s165.953761 74.197725 165.953761 165.953761-74.207119 165.953761-165.953761 165.953762z" fill="#0c65fa"/><path d="M704.371083 832.108037c0.685798 0 0.685798 0 0 0l1.371596 1.371596 0.685798 0.676404s0.676404 0 0.676404 0.685798c0 0 0.685798 0 0.685798 0.685798 0 0 0.685798 0 0.685798 0.676404 0 0 0.676404 0 0.676404 0.685798 0 0 0.695193 0 0.695192 0.685798h12.344367s0.676404 0 0.676404-0.685798c0 0 0.685798 0 0.685798-0.685798 0 0 0.685798 0 0.685798-0.676404 0 0 0.676404 0 0.676404-0.685798 0 0 0.685798 0 0.685798-0.685798l0.685798-0.676404 0.685799-0.695193 0.685798-0.676403 93.982532-93.306129c6.857982-6.857982 6.857982-18.525945 0-25.383926-6.848587-6.848587-18.525945-6.848587-25.383927 0l-63.11222 63.121614V644.302679c0-9.601174-8.238972-17.840147-17.830752-17.840147-9.601174 0-17.840147 8.238972-17.840147 17.840147v132.236917L634.363303 713.417982c-6.857982-6.848587-18.525945-6.848587-25.383927 0-6.857982 6.857982-6.857982 18.525945 0 25.383926l95.391707 93.306129z" fill="#0c65fa"/></svg>