<?xml version="1.0" encoding="utf-8"?>
<!-- Generator: Adobe Illustrator 22.0.1, SVG Export Plug-In . SVG Version: 6.00 Build 0)  -->
<svg version="1.1" id="Layer_1" xmlns="http://www.w3.org/2000/svg" xmlns:xlink="http://www.w3.org/1999/xlink" x="0px" y="0px"
	 viewBox="0 0 437.8 79.6" style="enable-background:new 0 0 437.8 79.6;" xml:space="preserve" focusable="false">
<style type="text/css">
	.st0{fill:#017854;}
	.st1{fill:#0B2D2D;}
	.st2{fill-rule:evenodd;clip-rule:evenodd;fill:#0B2D2D;}
</style>
<g>
	<path class="st0" d="M30.6,10.3c0,3.6-1.2,6.5-3.7,8.5c-2.5,2-5.3,3.1-8.4,3.1c-1.1,0-2.1-0.1-3.2-0.4c-0.2-0.5-0.5-1.1-0.9-1.9
		l0.6-0.6c0.7,0.2,1.4,0.4,2,0.4c1.8,0,3.2-0.6,4.3-1.9c1.1-1.3,1.6-3,1.6-5.3c0-4.9-2.2-7.4-6.7-7.4c-0.5,0-1.6,0.1-3.2,0.3
		c-0.2,0.4-0.2,3.3-0.2,8.7v14c0,4.2,0.1,6.9,0.3,8.2c0.1,0.5,0.4,0.8,0.9,1c0.2,0,1.4,0.1,3.6,0.3l0.3,0.3v1.8l-0.3,0.3
		c-2.4-0.1-5.3-0.2-8.7-0.2c-3.8,0-6.5,0.1-8.2,0.2l-0.3-0.2v-1.8l0.3-0.3c1.8-0.1,2.8-0.2,3.1-0.3c0.5-0.1,0.8-0.5,0.9-1
		c0.2-1.3,0.3-4,0.3-8.2v-14c0-4.2-0.1-6.9-0.3-8.2C4.7,5,4.4,4.7,3.9,4.6C3.6,4.5,2.6,4.4,0.8,4.3L0.5,4V2.3L0.8,2
		c1.7,0.1,4.4,0.2,8,0.2c1.5,0,3.6,0,6.4-0.1C18,2,19.6,2,20,2c4.8,0,8,1.2,9.4,3.7C30.2,7,30.6,8.5,30.6,10.3z"/>
	<path class="st0" d="M50.8,13.8l-0.2,4.7c0,0.8-0.1,1.7-0.1,2.7l-1.1,0.3c-0.8-1.2-2-1.8-3.4-1.8c-1.3,0-2.4,0.5-3.3,1.6
		c-0.5,0.7-0.8,1.6-0.8,2.9v6.2c0,1.3,0.1,3.1,0.2,5.4c0,0.7,0.2,1.1,0.6,1.3c0.3,0.2,1.6,0.3,3.7,0.4l0.3,0.2v1.6l-0.3,0.3
		c-2.6-0.1-5.2-0.2-7.7-0.2c-3.2,0-5.6,0.1-7.2,0.2l-0.3-0.3v-1.6l0.3-0.3c1.7-0.1,2.7-0.2,3.2-0.4c0.4-0.2,0.5-0.6,0.6-1.3
		c0.1-2.3,0.2-4.8,0.2-7.4v-3.8c0-3.5-0.1-5.6-0.4-6.1c-0.2-0.4-0.6-0.6-1.1-0.7c-0.2,0-1-0.1-2.3-0.1l-0.3-0.3v-1.5l0.3-0.3
		c3.2-0.3,6.5-1,10-2.2l0.6,0.3L42,19c1.1-1.3,2.4-2.8,4-4.5c0.7-0.7,1.7-1.1,3-1.1C49.7,13.5,50.3,13.6,50.8,13.8z"/>
	<path class="st0" d="M76.9,26.3c0,6.3-2.1,10.5-6.3,12.7c-2,1.1-4.4,1.6-7,1.6c-4.1,0-7.2-1.2-9.3-3.5c-2.1-2.3-3.2-5.7-3.2-10.1
		c0-6.1,2.1-10.1,6.2-12.1c2-1,4.4-1.5,7.1-1.5c5.6,0,9.4,2,11.2,5.9C76.4,21.1,76.9,23.4,76.9,26.3z M69.5,28.4
		c0-4.4-0.5-7.5-1.4-9.4c-1-1.9-2.4-2.8-4.4-2.8c-3.5,0-5.3,3.2-5.3,9.5c0,8.1,2,12.2,5.9,12.2c2.5,0,4-1.4,4.7-4.1
		C69.3,32.4,69.5,30.6,69.5,28.4z"/>
	<path class="st0" d="M105.4,16.3l-0.3,0.3c-1.1,0.1-1.8,0.2-2.1,0.4c-0.2,0.1-0.5,0.5-0.9,1.2c-0.4,0.6-1,2.1-2,4.3l-5.1,11.7
		c-0.2,0.4-0.9,2.3-2.3,5.7h-4.6c-1-2.8-2.1-5.6-3.2-8.6c-1.9-4.6-3.4-8.6-4.7-12c-0.6-1.5-1.2-2.4-1.9-2.6
		c-0.4-0.1-0.9-0.2-1.6-0.2l-0.3-0.3v-1.5l0.3-0.3c1.6,0.1,4,0.1,7.1,0.1c2.7,0,4.8,0,6.4-0.1l0.3,0.3v1.6l-0.3,0.3
		c-1.3,0-2.2,0.1-2.5,0.2c-0.4,0.1-0.6,0.4-0.6,0.7c0,0.5,1.1,3.6,3.3,9.3c1.1,3.1,1.9,5,2.3,5.8c1.1-2.7,2.2-5.2,3.2-7.8
		c1.7-4.2,2.5-6.6,2.5-7.3c0-0.4-0.2-0.6-0.5-0.7c-0.4-0.1-1.2-0.2-2.6-0.3l-0.3-0.3v-1.6l0.3-0.3c1.4,0.1,3,0.1,4.8,0.1
		c2,0,3.7,0,5.1-0.1l0.3,0.3V16.3z"/>
	<path class="st0" d="M120.9,39.3l-0.3,0.3c-1.7-0.1-4.1-0.2-7.3-0.2c-3.2,0-5.6,0.1-7.2,0.2l-0.3-0.3v-1.6l0.3-0.3
		c1.7-0.1,2.7-0.2,3.2-0.4c0.4-0.2,0.5-0.6,0.6-1.3c0.1-2.3,0.2-4.8,0.2-7.4v-3.8c0-3.4-0.1-5.5-0.4-6.1c-0.1-0.4-0.5-0.6-1.1-0.7
		c-0.2,0-1-0.1-2.3-0.1l-0.3-0.3v-1.5l0.3-0.3c3.4-0.3,6.8-1,10.3-2.2l0.6,0.3c-0.2,3.2-0.3,5.9-0.3,8.1v8.5c0,1.3,0.1,3.1,0.2,5.4
		c0,0.7,0.2,1.1,0.6,1.3c0.4,0.2,1.5,0.3,3.2,0.4l0.3,0.3V39.3z M117.3,4.7c0,1.1-0.4,2.1-1.2,2.9c-0.8,0.8-1.8,1.2-2.9,1.2
		c-1.1,0-2.1-0.4-2.9-1.2c-0.8-0.8-1.2-1.8-1.2-2.9c0-1.2,0.4-2.1,1.2-2.9c0.8-0.8,1.8-1.2,2.9-1.2c1.1,0,2,0.4,2.8,1.2
		C116.9,2.6,117.3,3.6,117.3,4.7z"/>
	<path class="st0" d="M150.2,39.3l-0.3,0.3c-1.7-0.1-3.3-0.2-4.7-0.2c-1.3,0-3.1,0.1-5.4,0.2l-0.2-0.2c0.1-0.9,0.1-2.3,0.1-4.3
		c-0.6,0.5-1.5,1.3-2.7,2.4c-1.5,1.4-2.4,2.2-2.9,2.4c-0.6,0.3-1.5,0.4-2.8,0.4c-3,0-5.5-1.1-7.3-3.4c-1.9-2.3-2.8-5.2-2.8-8.9
		c0-3.5,0.7-6.3,2.1-8.2c0.4-0.5,1.5-1.4,3.3-2.7c2.1-1.5,3.7-2.5,4.6-2.9c0.8-0.4,1.9-0.5,3.2-0.5c1.8,0,3.6,0.4,5.1,1.2v-1.5
		c0-4.6-0.1-7.4-0.3-8.2c-0.1-0.5-0.5-0.7-1.1-0.8c-0.3-0.1-1.1-0.1-2.4-0.2l-0.3-0.3V2.4l0.3-0.3c3.4-0.4,6.8-1.1,10.3-2.2l0.6,0.3
		c0,0.1,0,0.9-0.1,2.6c-0.2,3.8-0.2,9.5-0.2,17.1v8.6c0,5,0.1,7.7,0.3,8.2c0.1,0.3,0.3,0.5,0.6,0.6c0.4,0.1,1.3,0.2,2.7,0.3l0.3,0.3
		V39.3z M139.7,25.5v-5c-1.3-1.5-2.5-2.5-3.7-2.9c-0.8-0.3-1.6-0.4-2.5-0.4c-2.4,0-4,1.3-4.7,3.8c-0.4,1.4-0.6,3-0.6,4.7
		c0,3.7,0.9,6.4,2.6,8.1c0.9,0.9,2.1,1.4,3.6,1.4c1.3,0,2.4-0.4,3.5-1.2c1-0.7,1.5-1.5,1.7-2.3C139.7,31.4,139.7,29.4,139.7,25.5z"
		/>
	<path class="st0" d="M173,24.5c0,0.3,0,0.8,0,1.4l-0.3,0.4c-2.3,0.6-5.4,1-9.3,1c-0.7,0-1.7,0-3.1,0c-1.4,0-2.4,0-3.2,0
		c0.1,2.6,0.9,4.7,2.4,6.4c1.6,1.8,3.6,2.7,6.2,2.7c1.7,0,3.7-0.6,6-1.8l0.6,0.8l-1.2,2.6c-2.6,1.6-5.4,2.5-8.4,2.5
		c-4,0-7.1-1.1-9.3-3.4c-2.2-2.2-3.3-5.4-3.3-9.6c0-4.9,1.2-8.3,3.5-10.1c3.3-2.5,6.3-3.8,9.3-3.8c3.2,0,5.6,0.9,7.3,2.7
		C172.1,18.3,173,21,173,24.5z M166,23.8c0-4.8-1.5-7.2-4.5-7.2c-3.1,0-4.7,2.4-4.7,7.1v0.6c1,0.2,2.8,0.2,5.5,0.2
		c1.4,0,2.6-0.1,3.7-0.2C166,24.1,166,23.9,166,23.8z"/>
	<path class="st0" d="M192.7,13.7c2.8,0,4.9,0.8,6.3,2.5c1.1,1.4,1.7,3.4,1.7,6.1c0,0.3,0,1.5-0.1,3.7c-0.1,2.2-0.1,3.7-0.1,4.6
		c0,2.7,0,4.4,0.1,5.1c0.1,0.7,0.3,1.2,0.6,1.4c0.3,0.2,1.2,0.3,2.8,0.3l0.2,0.3v1.6l-0.3,0.3c-1.9-0.1-3.6-0.2-4.9-0.2
		c-1.2,0-3,0.1-5.4,0.2l-0.3-0.3c0.3-3.9,0.5-7,0.5-9.1V25c0-4.3-1.6-6.5-4.7-6.5c-1.6,0-2.9,0.6-3.8,1.7c-0.8,0.9-1.2,1.9-1.2,2.8
		v5c0,4.6,0.1,7.4,0.3,8.4c0.1,0.6,1.2,0.9,3.1,1l0.3,0.3v1.6l-0.3,0.3c-1.5-0.1-3.7-0.2-6.7-0.2c-3.2,0-5.6,0.1-7.2,0.2l-0.3-0.3
		v-1.6l0.3-0.3c1.7-0.1,2.7-0.2,3.2-0.4c0.4-0.2,0.5-0.6,0.6-1.3c0.1-2.3,0.2-4.8,0.2-7.4v-3.8c0-3.5-0.1-5.6-0.4-6.1
		c-0.2-0.4-0.6-0.6-1.1-0.7c-0.2,0-1-0.1-2.3-0.1l-0.3-0.3v-1.5l0.3-0.3c3.2-0.3,6.5-1,10-2.2l0.6,0.3l-0.1,4.5l4.6-3.8
		C190,14,191.3,13.7,192.7,13.7"/>
	<path class="st0" d="M219.4,35.9c-0.1,0.1-0.5,0.5-1.1,1.1c-1,1-1.9,1.9-2.7,2.7c-0.9,0.3-1.7,0.4-2.6,0.4c-2.5,0-4.2-0.7-5.4-2.1
		c-0.5-0.6-0.8-1.3-1-2.1c-0.2-1-0.3-2.2-0.2-3.8l0.1-6.3v-6.6h-0.7l-1.4,0.1h-1.1l-0.3-0.2v-0.7l0.2-0.4c0.3-0.2,0.8-0.5,1.5-1
		c0.8-0.5,1.4-0.9,1.8-1.2V12c0-1.5-0.1-3.1-0.2-4.8c1.3-0.4,2.4-0.8,3.2-1.1c0.8-0.3,2-0.9,3.5-1.6l0.7,0.5
		c-0.2,2.2-0.4,4.2-0.4,5.9l-0.2,4.6h0.9c1.9,0,3.6-0.1,5-0.2l0.3,0.3l-0.4,3.1l-0.3,0.3H213v9c0,2.9,0,4.6,0.1,5.1
		c0.1,0.7,0.4,1.3,0.9,1.8c0.5,0.5,1.3,0.7,2.2,0.7c0.7,0,1.6-0.2,2.6-0.6L219.4,35.9z"/>
	<path class="st0" d="M256.8,2.2l-0.3,3c-0.1,0.7-0.2,1.6-0.2,2.7l-0.2,2.1l-0.3,0.3h-1.5L254,10c0-2.4-0.2-3.7-0.4-4.1
		c-0.4-0.5-2.9-0.8-7.4-0.8c-0.7,0-1.9,0.1-3.4,0.2c-0.2,1.8-0.3,5-0.3,9.7v3.6l3,0.1c0.9,0,2.6,0,5-0.1c0.5,0,0.8-0.2,1-0.4
		c0.3-0.4,0.4-1.6,0.5-3.5l0.3-0.3h1.6l0.3,0.3c-0.1,2-0.1,3.8-0.1,5.4c0,1.8,0,3.7,0.1,5.9l-0.3,0.2H252l-0.3-0.3
		c0-1.9-0.1-2.9-0.2-3.3c-0.3-0.6-1.2-1-2.7-1.1c-1-0.1-2.1-0.1-3.1-0.1c-1.2,0-2.3,0-3.3,0.1v6.3c0,4.2,0.1,6.9,0.3,8.2
		c0.1,0.5,0.4,0.8,0.9,1c0.1,0,1.4,0.1,3.8,0.3l0.3,0.3v1.8l-0.3,0.3l-10.7-0.2c-1.5,0-3.6,0-6.3,0.2l-0.3-0.2v-1.8l0.3-0.3
		c1.8-0.1,2.8-0.2,3.1-0.3c0.5-0.1,0.8-0.5,0.9-1c0.2-1.3,0.3-4,0.3-8.2v-14c0-4.2-0.1-6.9-0.3-8.2c-0.1-0.5-0.4-0.8-0.9-1
		c-0.3-0.1-1.3-0.2-3.1-0.3L230.2,4V2.2l0.3-0.2c1.7,0.1,4.4,0.2,8.2,0.2c2.4,0,8.4-0.1,17.9-0.2L256.8,2.2z"/>
	<path class="st0" d="M287.3,39.3l-0.3,0.3c-2.7-0.1-4.3-0.1-5-0.1c-0.6,0-1.4,0-2.6,0.1c-1.1,0-2,0.1-2.6,0.1l-0.2-0.2
		c0.1-1.4,0.2-2.8,0.2-4.1c-0.9,0.7-2.5,2.2-4.8,4.4c-1.1,0.4-2.4,0.7-3.7,0.7c-2.4,0-4.3-0.6-5.6-1.9c-1.4-1.3-2.1-3.2-2.1-5.6
		c0-0.3,0-0.9,0.1-1.9c0-1,0.1-1.9,0.1-2.8v-3.4c0-3.5-0.1-5.5-0.4-6.1c-0.2-0.4-0.6-0.6-1.1-0.7c-0.2,0-1-0.1-2.3-0.1l-0.3-0.3
		v-1.5l0.3-0.3c3.4-0.3,6.8-1,10.3-2.2l0.6,0.3c-0.2,2.9-0.3,5.6-0.3,8.1v5.2c0,2.4,0.1,4.1,0.2,5c0.2,1.1,0.6,1.9,1.3,2.4
		c0.7,0.5,1.6,0.8,2.7,0.8c1.4,0,2.6-0.4,3.6-1.3c1-0.9,1.5-1.9,1.6-3c0-0.9,0.1-1.4,0.1-1.6v-4.7c0-3.5-0.1-5.5-0.4-6.1
		c-0.2-0.4-0.5-0.6-1.1-0.7c-0.2,0-1-0.1-2.3-0.1l-0.3-0.3v-1.5l0.3-0.3c3.4-0.3,6.8-1,10.3-2.2l0.6,0.3c-0.2,2.7-0.3,5.4-0.3,8.1
		v8.3c0,3.7,0.1,5.8,0.3,6.3c0.1,0.2,0.3,0.4,0.5,0.5c0.4,0.1,1.3,0.2,2.8,0.3l0.3,0.3V39.3z"/>
	<path class="st0" d="M318.9,39.3l-0.3,0.3c-1.9-0.1-3.6-0.2-4.9-0.2c-1.2,0-3,0.1-5.4,0.2l-0.3-0.3c0.3-3.9,0.5-7,0.5-9.1V25
		c0-4.3-1.6-6.5-4.7-6.5c-1.6,0-2.9,0.6-3.8,1.7c-0.8,0.9-1.2,1.9-1.2,2.8v5c0,4.6,0.1,7.4,0.3,8.4c0.1,0.6,1.2,0.9,3.1,1l0.3,0.3
		v1.6l-0.3,0.3c-1.5-0.1-3.7-0.2-6.7-0.2c-3.2,0-5.6,0.1-7.2,0.2l-0.3-0.3v-1.6l0.3-0.3c1.7-0.1,2.7-0.2,3.2-0.4
		c0.4-0.2,0.5-0.6,0.6-1.3c0.1-2.3,0.2-4.8,0.2-7.4v-3.8c0-3.5-0.1-5.6-0.4-6.1c-0.2-0.4-0.6-0.6-1.1-0.7c-0.2,0-1-0.1-2.3-0.1
		l-0.3-0.3v-1.5l0.3-0.3c3.2-0.3,6.5-1,10-2.2l0.6,0.3l-0.1,4.5l4.6-3.8c1.2-0.5,2.4-0.7,3.8-0.7c2.8,0,4.9,0.8,6.3,2.5
		c1.1,1.4,1.7,3.4,1.7,6.1c0,0.3,0,1.5-0.1,3.7c-0.1,2.2-0.1,3.7-0.1,4.6c0,2.7,0,4.4,0.1,5.1c0.1,0.7,0.3,1.2,0.6,1.4
		c0.3,0.2,1.2,0.3,2.8,0.3l0.2,0.3V39.3z"/>
	<path class="st0" d="M348,39.3l-0.3,0.3c-1.7-0.1-3.3-0.2-4.7-0.2c-1.3,0-3.1,0.1-5.4,0.2l-0.2-0.2c0.1-0.9,0.1-2.3,0.1-4.3
		c-0.6,0.5-1.5,1.3-2.7,2.4c-1.5,1.4-2.4,2.2-2.9,2.4c-0.6,0.3-1.5,0.4-2.8,0.4c-3,0-5.5-1.1-7.3-3.4c-1.9-2.3-2.8-5.2-2.8-8.9
		c0-3.5,0.7-6.3,2.1-8.2c0.4-0.5,1.5-1.4,3.3-2.7c2.1-1.5,3.7-2.5,4.6-2.9c0.8-0.4,1.9-0.5,3.2-0.5c1.8,0,3.6,0.4,5.1,1.2v-1.5
		c0-4.6-0.1-7.4-0.3-8.2c-0.1-0.5-0.5-0.7-1.1-0.8c-0.3-0.1-1.1-0.1-2.4-0.2l-0.3-0.3V2.4l0.3-0.3c3.4-0.4,6.8-1.1,10.3-2.2l0.6,0.3
		c0,0.1,0,0.9-0.1,2.6c-0.2,3.8-0.2,9.5-0.2,17.1v8.6c0,5,0.1,7.7,0.3,8.2c0.1,0.3,0.3,0.5,0.6,0.6c0.4,0.1,1.3,0.2,2.7,0.3l0.3,0.3
		V39.3z M337.5,25.5v-5c-1.3-1.5-2.5-2.5-3.7-2.9c-0.8-0.3-1.6-0.4-2.5-0.4c-2.4,0-4,1.3-4.7,3.8c-0.4,1.4-0.6,3-0.6,4.7
		c0,3.7,0.9,6.4,2.6,8.1c0.9,0.9,2.1,1.4,3.6,1.4c1.3,0,2.4-0.4,3.5-1.2c1-0.7,1.5-1.5,1.7-2.3C337.5,31.4,337.5,29.4,337.5,25.5z"
		/>
	<path class="st0" d="M363.9,39.3l-0.3,0.3c-1.7-0.1-4.1-0.2-7.3-0.2c-3.2,0-5.6,0.1-7.2,0.2l-0.3-0.3v-1.6l0.3-0.3
		c1.7-0.1,2.7-0.2,3.2-0.4c0.4-0.2,0.5-0.6,0.6-1.3c0.1-2.3,0.2-4.8,0.2-7.4v-3.8c0-3.4-0.1-5.5-0.4-6.1c-0.1-0.4-0.5-0.6-1.1-0.7
		c-0.2,0-1-0.1-2.3-0.1l-0.3-0.3v-1.5l0.3-0.3c3.4-0.3,6.8-1,10.3-2.2l0.6,0.3c-0.2,3.2-0.3,5.9-0.3,8.1v8.5c0,1.3,0.1,3.1,0.2,5.4
		c0,0.7,0.2,1.1,0.6,1.3c0.4,0.2,1.5,0.3,3.2,0.4l0.3,0.3V39.3z M360.3,4.7c0,1.1-0.4,2.1-1.2,2.9c-0.8,0.8-1.8,1.2-2.9,1.2
		c-1.1,0-2.1-0.4-2.9-1.2c-0.8-0.8-1.2-1.8-1.2-2.9c0-1.2,0.4-2.1,1.2-2.9c0.8-0.8,1.8-1.2,2.9-1.2c1.1,0,2,0.4,2.8,1.2
		C359.9,2.6,360.3,3.6,360.3,4.7z"/>
	<path class="st0" d="M395.6,39.3l-0.3,0.3c-1.9-0.1-3.6-0.2-4.9-0.2c-1.2,0-3,0.1-5.4,0.2l-0.3-0.3c0.3-3.9,0.5-7,0.5-9.1V25
		c0-4.3-1.6-6.5-4.7-6.5c-1.6,0-2.9,0.6-3.8,1.7c-0.8,0.9-1.2,1.9-1.2,2.8v5c0,4.6,0.1,7.4,0.3,8.4c0.1,0.6,1.2,0.9,3.1,1l0.3,0.3
		v1.6l-0.3,0.3c-1.5-0.1-3.7-0.2-6.7-0.2c-3.2,0-5.6,0.1-7.2,0.2l-0.3-0.3v-1.6l0.3-0.3c1.7-0.1,2.7-0.2,3.2-0.4
		c0.4-0.2,0.5-0.6,0.6-1.3c0.1-2.3,0.2-4.8,0.2-7.4v-3.8c0-3.5-0.1-5.6-0.4-6.1c-0.2-0.4-0.6-0.6-1.1-0.7c-0.2,0-1-0.1-2.3-0.1
		l-0.3-0.3v-1.5l0.3-0.3c3.2-0.3,6.5-1,10-2.2l0.6,0.3l-0.1,4.5l4.6-3.8c1.2-0.5,2.4-0.7,3.8-0.7c2.8,0,4.9,0.8,6.3,2.5
		c1.1,1.4,1.7,3.4,1.7,6.1c0,0.3,0,1.5-0.1,3.7c-0.1,2.2-0.1,3.7-0.1,4.6c0,2.7,0,4.4,0.1,5.1c0.1,0.7,0.3,1.2,0.6,1.4
		c0.3,0.2,1.2,0.3,2.8,0.3l0.2,0.3V39.3z"/>
	<path class="st0" d="M423.2,41.2c0,3.9-1.4,7-4.3,9.3c-2.9,2.3-6.7,3.4-11.3,3.4c-3.7,0-6.6-0.7-8.7-2.1c-2.1-1.4-3.2-3.2-3.2-5.5
		c0-1.6,0.3-2.7,1-3.5c0.1-0.1,1-0.7,2.8-1.7c0.9-0.5,1.5-0.9,1.9-1.1c-2.4-0.4-3.7-1.6-3.7-3.5c0-1,0.4-2.1,1.1-3.1
		c0.1-0.1,0.5-0.4,1.4-1.1c0.4-0.3,1.2-0.8,2.3-1.6c-3.8-1.4-5.7-3.9-5.7-7.7c0-2.9,1.1-5.2,3.2-7c2.2-1.8,5-2.6,8.6-2.6
		c3.5,0,6.2,0.8,8.1,2.3c1.1,0.1,1.8,0.1,2.1,0.1c0.9,0,2.2-0.1,3.9-0.1l0.3,0.3l-0.3,2.7l-0.3,0.3h-3.9c0.2,0.8,0.3,1.7,0.3,2.6
		c0,4.2-2,7.1-6.1,8.6c-1.8,0.7-3.7,1-5.4,1c-0.6,0-1.4,0-2.3-0.1c-1.1,0.6-1.7,1.4-1.7,2.4c0,0.9,0.6,1.4,1.9,1.5
		c0.7,0.1,2,0.1,3.7,0.1c0.5,0,1.5,0,2.9-0.1c1.4-0.1,2.4-0.1,3-0.1c4,0,6.5,0.9,7.4,2.7C422.9,38.5,423.2,39.7,423.2,41.2z
		 M417.1,44.2c0-1.9-0.7-3.1-2-3.6c-0.6-0.2-1.7-0.3-3.4-0.3l-5-0.1c-0.6,0-1.3,0-2.3,0.1c-2.4,1.5-3.6,3.2-3.6,5.2
		c0,1.8,0.7,3.2,2.1,4.2c1.4,1,3.3,1.5,5.8,1.5c2.6,0,4.6-0.6,6.2-1.9C416.3,48.1,417.1,46.4,417.1,44.2z M412.3,22.7
		c0-4.5-1.5-6.7-4.5-6.7c-2.9,0-4.4,1.9-4.4,5.8c0,4.6,1.5,6.8,4.6,6.8C410.9,28.6,412.3,26.7,412.3,22.7z"/>
</g>
<g>
	<path class="st1" d="M162.3,60.7h-3.6v-2.7H169v2.7h-3.6v13.9h-3.1V60.7z"/>
	<path class="st1" d="M171.6,57.9h2.9v5.3c0.5-1,1.4-1.5,2.6-1.5c1.8,0,2.8,1,2.8,3v9.8H177v-8.4c0-1.3-0.2-1.9-1.1-1.9
		c-1.2,0-1.5,0.8-1.5,2.4v8h-2.9V57.9z"/>
	<path class="st1" d="M191.3,70.3c0,0.2,0,0.3,0,0.5c0,2.9-1.3,4.1-4.2,4.1c-1.5,0-2.6-0.4-3.3-1.2c-1.1-1.3-1.1-3.1-1.1-5.8
		c0-2.2,0.1-3.8,1-4.9c0.7-0.9,1.9-1.3,3.5-1.3c1.6,0,2.7,0.5,3.4,1.4c0.8,1,0.9,2.5,0.9,4.6v0.9h-5.7c0,0.3,0,0.5,0,0.8
		c0,2.2,0.3,3.2,1.4,3.2c1.1,0,1.5-0.8,1.5-2.4H191.3z M188.5,66.7v-0.5c0-1.6-0.3-2.3-1.4-2.3c-1.1,0-1.4,0.7-1.4,2.3
		c0,0.1,0,0.3,0,0.5H188.5z"/>
	<path class="st1" d="M201,57.9h4.7l2.3,10.8l2.3-10.8h4.7v16.6h-3l0.1-14.8l-3.1,14.8H207l-3.1-14.8l0.1,14.8h-3V57.9z"/>
	<path class="st1" d="M226.9,68.3c0,4.7-0.9,6.6-4.4,6.6c-3.5,0-4.4-1.9-4.4-6.6c0-4.7,0.9-6.6,4.4-6.6
		C226,61.7,226.9,63.7,226.9,68.3z M221,67.3v1.1c0,3.1,0,4.2,1.4,4.2c1.4,0,1.5-1.1,1.5-3.8v-1.2c0-2.6-0.1-3.7-1.5-3.7
		C221.1,64,221,65,221,67.3z"/>
	<path class="st1" d="M229.8,62.1h2.8v2c0.8-1.6,1.5-2.3,2.9-2.4v3.5c-0.3-0.1-0.5-0.1-0.7-0.1c-1.2,0-2,0.8-2,2v7.3h-3V62.1z"/>
	<path class="st1" d="M241.7,62.1h1.2v2.2h-1.2v6.6c0,1.1,0.1,1.6,0.9,1.6c0.1,0,0.2,0,0.3,0v2.3c-0.7,0.1-1.2,0.1-1.6,0.1
		c-2.2,0-2.5-0.9-2.5-3v-7.5h-1.1v-2.2h1.1v-3.4h2.9V62.1z"/>
	<path class="st1" d="M253.1,77.3c-0.6,0.9-1.9,1.5-3.8,1.5c-2.5,0-3.8-1-3.8-2.8h2.9c0,0.5,0.4,0.8,1.1,0.8c1.2,0,1.5-0.7,1.5-2.4
		v-0.9c-0.5,0.9-1.3,1.4-2.4,1.4c-2.7,0-3.3-2-3.3-6.7c0-4.6,0.7-6.5,3.3-6.5c1.2,0,2.1,0.6,2.5,1.6v-1.3h2.7v11.5
		C253.8,75.2,253.7,76.4,253.1,77.3z M248.1,68.5c0,2.7,0.1,3.9,1.3,3.9c1.5,0,1.5-1.5,1.5-5c0-2.4-0.2-3.4-1.5-3.4
		C248.2,64.1,248.1,65.4,248.1,68.5z"/>
	<path class="st1" d="M262.6,73.3c-0.6,1-1.6,1.6-2.9,1.6c-1.9,0-3-1.3-3-3.6c0-2.3,1.1-3.2,3.5-4.3c1.5-0.7,2.3-0.8,2.3-2
		c0-0.8-0.4-1.2-1.3-1.2c-1,0-1.5,0.6-1.5,1.8v0.2h-2.8c0-2.8,1.3-4,4.3-4c3.1,0,4.1,1.1,4.1,4v7c0,0.7,0.1,1.2,0.4,1.8h-2.8
		C262.7,74.4,262.6,74,262.6,73.3z M259.7,71c0,1.1,0.4,1.6,1.3,1.6c1,0,1.5-0.9,1.5-2.6v-2C260.5,69,259.7,69.7,259.7,71z"/>
	<path class="st1" d="M276,77.3c-0.7,0.9-2,1.5-3.8,1.5c-2.5,0-3.8-1-3.8-2.8h2.9c0,0.5,0.4,0.8,1.1,0.8c1.2,0,1.5-0.7,1.5-2.4v-0.9
		c-0.5,0.9-1.3,1.4-2.4,1.4c-2.7,0-3.3-2-3.3-6.7c0-4.6,0.7-6.5,3.3-6.5c1.2,0,2.1,0.6,2.5,1.6v-1.3h2.7v11.5
		C276.7,75.2,276.7,76.4,276,77.3z M271.1,68.5c0,2.7,0.1,3.9,1.3,3.9c1.5,0,1.5-1.5,1.5-5c0-2.4-0.2-3.4-1.5-3.4
		C271.1,64.1,271.1,65.4,271.1,68.5z"/>
	<path class="st1" d="M288.3,70.3c0,0.2,0,0.3,0,0.5c0,2.9-1.3,4.1-4.2,4.1c-1.5,0-2.6-0.4-3.3-1.2c-1.1-1.3-1.1-3.1-1.1-5.8
		c0-2.2,0.1-3.8,1-4.9c0.7-0.9,1.9-1.3,3.5-1.3c1.6,0,2.7,0.5,3.4,1.4c0.8,1,0.9,2.5,0.9,4.6v0.9h-5.7c0,0.3,0,0.5,0,0.8
		c0,2.2,0.3,3.2,1.4,3.2c1.1,0,1.5-0.8,1.5-2.4H288.3z M285.4,66.7v-0.5c0-1.6-0.3-2.3-1.4-2.3c-1.1,0-1.4,0.7-1.4,2.3
		c0,0.1,0,0.3,0,0.5H285.4z"/>
	<path class="st1" d="M298,57.9h5.4c3.3,0,4.6,1.3,4.6,4.7c0,3.3-1.5,4.9-4.7,4.9H301v7.1H298V57.9z M302.4,65.2
		c1.9,0,2.6-0.6,2.6-2.5c0-2-0.7-2.5-2.6-2.5H301v5H302.4z"/>
	<path class="st1" d="M310.8,62.1h2.8v2c0.8-1.6,1.5-2.3,2.9-2.4v3.5c-0.3-0.1-0.5-0.1-0.7-0.1c-1.2,0-2,0.8-2,2v7.3h-3V62.1z"/>
	<path class="st1" d="M319.1,57.9h2.9v2.6h-2.9V57.9z M319.1,62.1h2.9v12.5h-2.9V62.1z"/>
	<path class="st1" d="M333.1,69.6v0.7c0,3.1-1.2,4.6-4,4.6c-3.4,0-4.2-2-4.2-6.6c0-4.6,0.8-6.6,4.2-6.6c2.7,0,4,1.3,4,4.2v0.4h-2.8
		v-0.3c0-1.5-0.3-2.1-1.3-2.1c-0.9,0-1.2,0.7-1.2,2.1v4.3c0,1.6,0.3,2.3,1.2,2.3c1,0,1.3-0.8,1.3-2.8v-0.3H333.1z"/>
	<path class="st1" d="M344.3,70.3c0,0.2,0,0.3,0,0.5c0,2.9-1.3,4.1-4.2,4.1c-1.5,0-2.6-0.4-3.3-1.2c-1.1-1.3-1.1-3.1-1.1-5.8
		c0-2.2,0.1-3.8,1-4.9c0.7-0.9,1.9-1.3,3.5-1.3c1.6,0,2.7,0.5,3.4,1.4c0.8,1,0.9,2.5,0.9,4.6v0.9h-5.7c0,0.3,0,0.5,0,0.8
		c0,2.2,0.3,3.2,1.4,3.2c1.1,0,1.5-0.8,1.5-2.4H344.3z M341.5,66.7v-0.5c0-1.6-0.3-2.3-1.4-2.3c-1.1,0-1.4,0.7-1.4,2.3
		c0,0.1,0,0.3,0,0.5H341.5z"/>
	<path class="st1" d="M354,57.9h3.1v13.8h5.6v2.8H354V57.9z"/>
	<path class="st1" d="M373.8,70.3c0,0.2,0,0.3,0,0.5c0,2.9-1.3,4.1-4.2,4.1c-1.5,0-2.6-0.4-3.3-1.2c-1.1-1.3-1.1-3.1-1.1-5.8
		c0-2.2,0.1-3.8,1-4.9c0.7-0.9,1.9-1.3,3.5-1.3c1.6,0,2.7,0.5,3.4,1.4c0.8,1,0.9,2.5,0.9,4.6v0.9h-5.7c0,0.3,0,0.5,0,0.8
		c0,2.2,0.3,3.2,1.4,3.2c1.1,0,1.5-0.8,1.5-2.4H373.8z M371,66.7v-0.5c0-1.6-0.3-2.3-1.4-2.3c-1.1,0-1.4,0.7-1.4,2.3
		c0,0.1,0,0.3,0,0.5H371z"/>
	<path class="st1" d="M382.5,73.3c-0.6,1-1.6,1.6-2.9,1.6c-1.9,0-3-1.3-3-3.6c0-2.3,1.1-3.2,3.5-4.3c1.5-0.7,2.3-0.8,2.3-2
		c0-0.8-0.4-1.2-1.3-1.2c-1,0-1.5,0.6-1.5,1.8v0.2h-2.8c0-2.8,1.3-4,4.3-4c3.1,0,4.1,1.1,4.1,4v7c0,0.7,0.1,1.2,0.4,1.8h-2.8
		C382.6,74.4,382.5,74,382.5,73.3z M379.6,71c0,1.1,0.4,1.6,1.3,1.6c1,0,1.5-0.9,1.5-2.6v-2C380.4,69,379.6,69.7,379.6,71z"/>
	<path class="st1" d="M391.3,74.9c-2.6,0-3.3-2-3.3-6.5c0-4.6,0.7-6.7,3.2-6.7c1.2,0,2,0.4,2.5,1.4v-5.2h2.9v16.6h-2.7v-1.3
		C393.4,74.3,392.5,74.9,391.3,74.9z M392.3,72.5c1.3,0,1.5-1,1.5-3.4c0-3.4-0.1-5-1.5-5c-1.2,0-1.3,1.2-1.3,4
		C391,71.2,391,72.5,392.3,72.5z"/>
	<path class="st1" d="M408.2,70.3c0,0.2,0,0.3,0,0.5c0,2.9-1.3,4.1-4.2,4.1c-1.5,0-2.6-0.4-3.3-1.2c-1.1-1.3-1.1-3.1-1.1-5.8
		c0-2.2,0.1-3.8,1-4.9c0.7-0.9,1.9-1.3,3.5-1.3c1.6,0,2.7,0.5,3.4,1.4c0.8,1,0.9,2.5,0.9,4.6v0.9h-5.7c0,0.3,0,0.5,0,0.8
		c0,2.2,0.3,3.2,1.4,3.2c1.1,0,1.5-0.8,1.5-2.4H408.2z M405.3,66.7v-0.5c0-1.6-0.3-2.3-1.4-2.3c-1.1,0-1.4,0.7-1.4,2.3
		c0,0.1,0,0.3,0,0.5H405.3z"/>
	<path class="st1" d="M411.2,62.1h2.8v2c0.8-1.6,1.5-2.3,2.9-2.4v3.5c-0.3-0.1-0.5-0.1-0.7-0.1c-1.2,0-2,0.8-2,2v7.3h-3V62.1z"/>
</g>
<rect x="0.4" y="49.1" class="st2" width="390.1" height="2.3"/>
<g>
	<path class="st1" d="M430.1,0.2c1.2,0,2.4,0.3,3.5,0.9c1.1,0.6,2,1.5,2.7,2.6c0.7,1.2,1,2.4,1,3.7c0,1.3-0.3,2.5-1,3.6
		c-0.6,1.1-1.5,2-2.6,2.6c-1.1,0.6-2.3,1-3.6,1c-1.3,0-2.5-0.3-3.6-1c-1.1-0.6-2-1.5-2.6-2.6c-0.6-1.1-1-2.3-1-3.6
		c0-1.3,0.3-2.5,1-3.7c0.7-1.1,1.6-2,2.7-2.6C427.7,0.5,428.9,0.2,430.1,0.2z M430.1,1.3c-1.1,0-2.1,0.3-3,0.8
		c-1,0.5-1.7,1.3-2.3,2.2c-0.6,1-0.8,2-0.8,3.1c0,1.1,0.3,2.1,0.8,3.1c0.5,0.9,1.3,1.7,2.2,2.2c0.9,0.5,2,0.8,3.1,0.8
		c1.1,0,2.1-0.3,3.1-0.8c0.9-0.5,1.7-1.3,2.2-2.2c0.5-1,0.8-2,0.8-3c0-1.1-0.3-2.1-0.8-3.1c-0.6-1-1.3-1.7-2.3-2.2
		C432.1,1.6,431.1,1.3,430.1,1.3z M426.8,11v-0.4l0.1,0c0.2,0,0.4,0,0.5-0.1c0.1,0,0.2-0.1,0.2-0.2c0-0.1,0.1-0.2,0.1-0.5V4.3
		c0-0.3,0-0.5-0.1-0.6c0-0.1-0.1-0.2-0.2-0.2c-0.1,0-0.2,0-0.5,0h-0.2V3.1h3.5c0.7,0,1.3,0.1,1.7,0.3c0.4,0.2,0.7,0.4,0.8,0.8
		c0.2,0.3,0.2,0.7,0.2,1c0,0.3-0.1,0.5-0.2,0.8c-0.1,0.3-0.3,0.5-0.6,0.7c-0.3,0.2-0.7,0.4-1.2,0.5c0.2,0.1,0.4,0.2,0.5,0.2
		c0.1,0.1,0.2,0.2,0.4,0.4c0.1,0.2,0.3,0.3,0.3,0.5c0.1,0.1,0.2,0.4,0.4,0.8c0.2,0.5,0.4,0.8,0.5,1.1c0.1,0.2,0.3,0.4,0.4,0.5
		c0.1,0.1,0.2,0.1,0.4,0.1V11h-1.2c-0.4,0-0.6-0.1-0.7-0.2c-0.1-0.1-0.4-0.7-0.9-1.7c-0.3-0.6-0.4-1-0.6-1.2
		c-0.1-0.2-0.2-0.4-0.4-0.4c-0.1-0.1-0.3-0.1-0.6-0.1c-0.1,0-0.2,0-0.5,0v2.4c0,0.3,0,0.5,0.1,0.5c0,0.1,0.1,0.2,0.2,0.2
		c0.1,0,0.3,0,0.6,0.1V11H426.8z M429.1,6.9c0.2,0,0.4,0,0.5,0c0.8,0,1.3-0.2,1.6-0.5c0.2-0.4,0.4-0.8,0.4-1.2
		c0-0.5-0.1-0.9-0.4-1.2c-0.3-0.3-0.7-0.4-1.1-0.4c-0.1,0-0.3,0-0.4,0c-0.2,0-0.3,0-0.3,0.1c0,0-0.1,0.1-0.1,0.1
		c0,0.1-0.1,0.2-0.1,0.2V6.9z"/>
</g>
       
</svg>
