<svg xmlns="http://www.w3.org/2000/svg" viewBox="0 0 320 60"><linearGradient id="a" gradientUnits="userSpaceOnUse" x1="23.82" y1="45.54" x2="28.58" y2="31.41"><stop offset=".14" stop-color="#fff"/><stop offset=".9" stop-color="#c9c7c6"/></linearGradient><path fill="url(#a)" d="M43.8 35.7H18.1l-9.6 5.9h26.1z"/><linearGradient id="b" gradientUnits="userSpaceOnUse" x1="16.32" y1="36.64" x2="7.11" y2="1.05"><stop offset=".04" stop-color="#009375"/><stop offset=".06" stop-color="#009375"/><stop offset=".27" stop-color="#009375"/><stop offset=".44" stop-color="#00866a"/><stop offset=".59" stop-color="#008065"/><stop offset=".77" stop-color="#006852"/><stop offset=".95" stop-color="#006852"/></linearGradient><path d="M8.5 41.6V14.3c0-3-.4-5.2-1.2-6.6-.9-1.5-2.5-2.2-5-2.2H.2L7.5.3h4.4c3.2 0 3.8 1.5 4.6 3.1 1.1 1.9 1.2 4.2 1.6 8.2v24.1l-9.6 5.9z" fill="url(#b)"/><linearGradient id="c" gradientUnits="userSpaceOnUse" x1="10.71" y1="-2.12" x2="24.77" y2="36.39"><stop offset=".08" stop-color="#009375"/><stop offset=".1" stop-color="#199d81"/><stop offset=".14" stop-color="#3dab92"/><stop offset=".18" stop-color="#57b69e"/><stop offset=".21" stop-color="#67bca5"/><stop offset=".24" stop-color="#6cbea8"/><stop offset=".43" stop-color="#009375"/><stop offset=".65" stop-color="#009375"/><stop offset="1" stop-color="#006852"/></linearGradient><path d="M28.7 38.1L17.4 13.3C16.2 10.5 14.2 8 12.9 7 10 5 10.8 5.4.3 5.4L7.6.2l7.8-.1c6.1 0 8.5 4.4 11.1 10.7l10.2 21.9-8 5.4z" fill="url(#c)"/><linearGradient id="d" gradientUnits="userSpaceOnUse" x1="35" y1="37.18" x2="47.32" y2=".59"><stop offset="0" stop-color="#fff"/><stop offset=".9" stop-color="#cfccc9"/></linearGradient><path d="M43.3 6.8L53.4.3 38.6 31.5l-9.9 6.6L43.3 6.8z" fill="url(#d)"/><g fill="#fff"><path d="M298.2 39.2v-8.1h1.7v6.8h4.3v1.3h-6zM305.5 39.2v-8.1h1.7v6.8h4.3v1.3h-6zM316 37.9c1 0 1.7-.5 2.1-1.5l1.5.6c-.3.8-.8 1.4-1.4 1.7-.6.4-1.4.6-2.2.6-1.3 0-2.3-.4-3-1.1-.7-.7-1.1-1.8-1.1-3.1s.3-2.4 1-3.1 1.7-1.1 3-1.1c1 0 1.7.2 2.3.6.6.4 1 .9 1.3 1.7l-1.5.4c-.1-.4-.4-.7-.7-1-.4-.2-.8-.4-1.3-.4-.8 0-1.3.2-1.7.7-.4.5-.6 1.2-.6 2.1 0 .9.2 1.6.6 2.1.4.6 1 .8 1.7.8z"/></g><path d="M97.2 14.2h-1c-2.1 0-4 .6-5.6 1.7-1.6 1.1-2.8 2.7-3.6 4.6-.8 2-1.3 4.1-1.3 6.5 0 2.4.4 4.6 1.3 6.5.8 1.9 2.1 3.5 3.7 4.6 1.6 1.1 3.6 1.7 6 1.7h1c2.1 0 3.9-.4 5.4-1.3 1.5-.9 2.9-2.3 4-4.2l-2-.8c-1 1.4-2 2.4-3.2 3.1a7 7 0 0 1-3.7 1c-2-.1-3.5-1-4.7-2.7-1.3-1.8-1.9-4.2-1.9-7.2h15.8l.1-2.1c0-3.7-.9-6.6-2.6-8.5s-4.2-2.9-7.7-2.9zm-5.5 11.5c0-1.8.2-3.4.7-4.8.5-1.4 1.1-2.6 2-3.4.7-.7 1.6-1.1 2.5-1.2 1.5.2 2.7 1 3.5 2.4.9 1.6 1.4 3.9 1.4 7H91.7z" fill="#009267"/><path d="M129.5 16.3a9.67 9.67 0 0 0-6.4-2.1h-1c-1.5 0-2.8.3-3.9.8-.9.4-1.7.9-2.4 1.4-.3-.5-.7-.9-1.2-1.1-.7-.3-1.7-.5-3-.5h-5.7v1h1c1.5 0 2.4.4 2.9 1.3s.7 2.2.7 3.9v18.3h5.7v-20c1.5-1.7 3-2.6 4.6-2.7 1.5.1 2.7.6 3.7 1.7 1.1 1.1 1.6 2.9 1.6 5.4v15.7h5.7V23.6c.2-3.5-.7-5.9-2.3-7.3zM154.4 5.3c-.6-.3-1.6-.5-2.9-.5h-5.7v1h1c1.5 0 2.4.4 2.9 1.3s.7 2.2.7 3.9v4.3c-.7-.3-1.4-.5-2-.7-1-.3-2.2-.4-3.5-.4h-1c-3.2 0-5.7 1.2-7.4 3.6-1.7 2.4-2.5 5.5-2.5 9.2 0 3.7.8 6.8 2.4 9.2s3.9 3.6 7 3.6h1c1.9 0 3.3-.3 4.4-.8.9-.4 1.6-1 2.3-1.7l1.5 1.9h3.6V11.1c0-1.8-.1-3.1-.4-4-.3-.9-.7-1.5-1.4-1.8zm-12.9 29.5c-1-2-1.5-4.6-1.5-7.8s.5-5.8 1.6-7.8c1-1.8 2.4-2.7 4.3-2.9.6 0 1.2.2 1.9.4.8.3 1.7.7 2.7 1.2v16.7c-.8 1-1.5 1.8-2.2 2.4-.6.5-1.5.7-2.7.8-1.8-.2-3.1-1.2-4.1-3zM169.9 14.2h-1c-2.1 0-4 .6-5.6 1.7-1.6 1.1-2.8 2.7-3.6 4.6-.8 2-1.3 4.1-1.3 6.5 0 2.4.4 4.6 1.3 6.5.8 1.9 2.1 3.5 3.7 4.6 1.6 1.1 3.6 1.7 6 1.7h1c2.1 0 3.9-.4 5.4-1.3 1.5-.9 2.9-2.3 4-4.2l-2-.8c-1 1.4-2 2.4-3.2 3.1a7 7 0 0 1-3.7 1c-2-.1-3.5-1-4.7-2.7-1.3-1.8-1.9-4.2-1.9-7.2h15.8l.1-2.1c0-3.7-.9-6.6-2.6-8.5s-4.1-2.9-7.7-2.9zm-5.5 11.5c0-1.8.2-3.4.7-4.8.5-1.4 1.1-2.6 2-3.4.7-.7 1.6-1.1 2.5-1.2 1.5.2 2.7 1 3.5 2.4.9 1.6 1.4 3.9 1.4 7h-10.1z" fill="#009267"/><path d="M198.1 15c-.7-.5-1.7-.8-3.1-.8h-1c-1.4 0-2.7.3-3.7.8-.8.4-1.5.9-2 1.5-.3-.5-.7-1-1.2-1.2-.7-.4-1.7-.5-3-.5h-5.2v1h.5c1.5 0 2.4.4 2.9 1.3s.7 2.2.7 3.9v18.3h5.7V20c.5-.8 1.2-1.4 2.1-1.9.7-.4 1.5-.6 2.3-.7.8 0 1.5.1 2.1.4.7.3 1.3.7 1.7 1.2l3.1-1.6c-.7-1.2-1.3-1.9-1.9-2.4z" fill="#009267"/><path d="M226.5 4.8c-4.1 10-7 16.6-8.4 20l-2.6 6-8.5-19.9c-1.1-2.6-2.5-4.4-4.1-5.3-1.6-.9-3.3-1.3-5-1.3h-1c-.3 0-.7 0-1 .1-.3 0-.6.1-.8.1v1c1.4.1 2.5.6 3.3 1.3.8.8 1.6 2.1 2.5 4.2L213 39.8h1.9l15-35h-3.4zM237.9 14.2h-1c-2.1 0-4 .6-5.6 1.7s-2.8 2.7-3.6 4.6-1.3 4.1-1.3 6.5c0 2.4.4 4.6 1.3 6.5s2.1 3.5 3.7 4.6c1.6 1.1 3.6 1.7 6 1.7h1c2.1 0 3.9-.4 5.4-1.3 1.5-.9 2.9-2.3 4-4.2l-2-.8c-1 1.4-2 2.4-3.2 3.1a7 7 0 0 1-3.7 1c-2-.1-3.5-1-4.7-2.7-1.3-1.8-1.9-4.2-1.9-7.2h15.8l.1-2.1c0-3.7-.9-6.6-2.6-8.5-1.5-1.9-4.2-2.9-7.7-2.9zm-5.5 11.5c0-1.8.2-3.4.7-4.8.5-1.4 1.1-2.6 2-3.4.7-.7 1.6-1.1 2.5-1.2 1.5.2 2.7 1 3.5 2.4.9 1.6 1.4 3.9 1.4 7h-10.1z" fill="#fff"/><path d="M270.2 16.3a9.67 9.67 0 0 0-6.4-2.1h-1c-1.5 0-2.8.3-3.9.8-.9.4-1.7.9-2.4 1.4-.3-.5-.7-.9-1.2-1.1-.7-.3-1.7-.5-3-.5h-5.7v1h1.1c1.5 0 2.4.4 2.9 1.3s.7 2.2.7 3.9v18.3h5.7v-20c1.5-1.7 3-2.6 4.6-2.7 1.5.1 2.7.6 3.7 1.7 1.1 1.1 1.6 2.9 1.6 5.4v15.7h5.7V23.6c.1-3.5-.7-5.9-2.4-7.3zM296.5 7.1c-.3-.9-.7-1.5-1.4-1.8-.6-.3-1.6-.5-2.9-.5h-5.7v1h1c1.5 0 2.4.4 2.9 1.3s.7 2.2.7 3.9v4.3c-.7-.3-1.4-.5-2-.7-1-.3-2.2-.4-3.5-.4h-1c-3.2 0-5.7 1.2-7.4 3.6-1.7 2.4-2.5 5.5-2.5 9.2 0 3.7.8 6.8 2.4 9.2s3.9 3.6 7 3.6h1c1.9 0 3.3-.3 4.4-.8.9-.4 1.6-1 2.3-1.7l1.5 1.9h3.6V11.1c.1-1.8-.1-3.1-.4-4zm-14.2 27.7c-1-2-1.5-4.6-1.5-7.8s.5-5.8 1.6-7.8c1-1.8 2.4-2.7 4.3-2.9.6 0 1.2.2 1.9.4.8.3 1.7.7 2.7 1.2v16.7c-.8 1-1.5 1.8-2.2 2.4-.6.5-1.5.7-2.7.8-1.8-.2-3.2-1.2-4.1-3z" fill="#fff"/><path d="M68.3 37.2V11.1c0-1.8-.1-3.1-.4-4-.3-.9-.7-1.5-1.4-1.8-.6-.3-1.6-.5-2.9-.5h-5.7v1h1c1.5 0 2.4.4 2.9 1.3s.7 2.2.7 3.9v28.2h24.3v-2.1H68.3z" fill="#009267"/><g fill="#009267"><path d="M172.2 53.5c-.7-1.7-1.4-3.3-2.1-4.9h-2.9c-1.7 3.6-3.1 7.3-4.4 11.1h3.1c.3-.8.5-1.6.8-2.4h3.8c.3.8.6 1.6.8 2.4h3.2c-.7-2.1-1.5-4.1-2.3-6.2zm-5 1.8c.4-1.2.9-2.4 1.3-3.5.4 1.2.9 2.4 1.3 3.5h-2.6zM182.7 49.4c-2-1.3-5.4-1-7.6-.6v10.9h3V56c1.7 0 3.7 0 5-1.2 1.4-1.3 1.3-4.3-.4-5.4zm-4.6 4.5v-3.2c1.3-.1 3 0 2.9 1.7-.2 1.4-1.8 1.5-2.9 1.5zM192.5 49.4c-2-1.3-5.4-1-7.6-.6v10.9h3V56c1.7 0 3.7 0 5-1.2 1.4-1.3 1.3-4.3-.4-5.4zm-4.7 4.5v-3.2c1.3-.1 3 0 2.9 1.7-.1 1.4-1.7 1.5-2.9 1.5zM202.9 57.3c-.4-.7-.9-1.4-1.4-2.1 2.3-1 2.9-4.3.8-5.8-2-1.4-5.3-1-7.6-.6v10.9h3v-4h.7c1 1.2 1.8 2.7 2.6 4h3.3c-.5-.8-1-1.7-1.4-2.4zm-5.3-3.6v-3c1.2-.1 2.9 0 2.8 1.6-.1 1.4-1.7 1.4-2.8 1.4z"/><path d="M213.7 53.5c-.7-1.7-1.4-3.3-2.1-4.9h-2.9c-1.7 3.6-3.1 7.3-4.4 11.1h3.1c.3-.8.5-1.6.8-2.4h3.8c.3.8.6 1.6.8 2.4h3.2c-.7-2.1-1.4-4.1-2.3-6.2zm-4.9 1.8c.4-1.2.9-2.4 1.3-3.5.4 1.2.9 2.4 1.3 3.5h-2.6zM229.1 55.3c-.4-1-1.2-1.5-2.1-1.9-.8-.4-2.1-.6-2.7-1.2-.6-.6-.3-1.4.5-1.6.9-.3 2 .1 2.8.5l1.2-2c-1.6-.9-4-1.1-5.8-.4-1.7.7-2.7 2.7-1.7 4.4.5.9 1.4 1.4 2.3 1.7.8.3 1.9.5 2.4 1.2.6.9-.1 1.6-1 1.7-1 .1-2.2-.2-3.1-.7l-1.2 2c2.9 1.7 10.2 1.3 8.4-3.7z"/><path d="M238.6 53.5c-.7-1.7-1.4-3.3-2.1-4.9h-2.9c-1.7 3.6-3.1 7.3-4.4 11.1h3.1c.3-.8.5-1.6.8-2.4h3.8c.3.8.6 1.6.8 2.4h3.2c-.7-2.1-1.5-4.1-2.3-6.2zm-4.9 1.8c.4-1.2.9-2.4 1.3-3.5.5 1.2.9 2.4 1.3 3.5h-2.6zM272.1 49.8c-2.2-2.1-6.4-2-8.5.2-2 2.2-2 6.4.3 8.5 2.1 2 6.3 1.9 8.3-.2 2.1-2.1 2.1-6.3-.1-8.5zm-5.1 7.7c-3.1-1.4-1.7-8.3 2-6.7 3.1 1.4 1.6 8.4-2 6.7zM289.7 57.6v-2.7h4.4v-2h-4.4v-2.2h5v-2.1h-8v11.1h8.4v-2.1h-5.4zM216.6 48.6v11.1h3V48.6h-3zM244.5 57.6v-8.9h-3v11.1h7.9v-2.1c-1.6-.1-3.3-.1-4.9-.1z"/><path d="M256.4 57.6c1.5-2.6 3.4-5.1 5.5-7.3v-1.7h-8.8v2.1h5c-1.9 2.3-3.8 4.8-5.2 7.5v1.5h9.2v-2.1h-5.7zM282 48.6v5.8c-1.4-2-2.8-4.1-4.5-5.8H275v11.1h3v-6.6c1.7 2.1 3.2 4.3 4.5 6.6h2.6V48.6H282z"/></g></svg>