<?xml version="1.0" encoding="utf-8"?>
<!-- Generator: Adobe Illustrator 22.1.0, SVG Export Plug-In . SVG Version: 6.00 Build 0)  -->
<!DOCTYPE svg PUBLIC "-//W3C//DTD SVG 1.1//EN" "http://www.w3.org/Graphics/SVG/1.1/DTD/svg11.dtd" [
	<!ENTITY st0 "fill:#FAA61A;">
	<!ENTITY st1 "fill:#FFFFFF;">
	<!ENTITY st2 "fill:#FDB913;">
	<!ENTITY st3 "fill:#686868;">
]>
<svg version="1.1" id="Layer_1" xmlns="http://www.w3.org/2000/svg" xmlns:xlink="http://www.w3.org/1999/xlink" x="0px" y="0px"
	 viewBox="0 0 205.9 54" style="enable-background:new 0 0 205.9 54;" xml:space="preserve">
<g>
	<g>
		<path style="&st0;" d="M38.7,37c7.7-8.6,7.4-21.8-0.8-30.1c-8.5-8.6-22.4-8.6-31-0.1C-1.4,15.1-1.7,28.4,6,37l0,0l0,0
			c0.3,0.3,0.5,0.6,0.8,0.9c0.3,0.3,0.6,0.6,0.9,0.9l14.6,14.6L37,38.8c0.3-0.3,0.6-0.5,0.8-0.8C38.1,37.7,38.4,37.4,38.7,37
			L38.7,37L38.7,37z"/>
		<path style="&st1;" d="M22.4,5c9.6,0,17.4,7.9,17.3,17.5c0,9.6-7.9,17.4-17.5,17.3c-9.6,0-17.4-7.9-17.3-17.5
			C5,12.8,12.8,5,22.4,5z"/>
		<g>
			<g>
				<path style="&st2;" d="M32.6,32.1c0,0.8-0.7,1.5-1.5,1.5H14.3c-0.8,0-1.5-0.7-1.5-1.5V11.4c0-0.8,0.7-1.5,1.5-1.5h8.4v8.4
					c0,0.8,0.7,1.5,1.5,1.5h8.4V32.1z M28.6,24.2c0-0.3-0.2-0.5-0.5-0.5H17.3c-0.3,0-0.5,0.2-0.5,0.5v1c0,0.3,0.2,0.5,0.5,0.5h10.9
					c0.3,0,0.5-0.2,0.5-0.5V24.2z M28.6,28.1c0-0.3-0.2-0.5-0.5-0.5H17.3c-0.3,0-0.5,0.2-0.5,0.5v1c0,0.3,0.2,0.5,0.5,0.5h10.9
					c0.3,0,0.5-0.2,0.5-0.5V28.1z M24.7,17.8V9.9c3.4,1,6.9,5.1,7.9,7.9H24.7z"/>
			</g>
			<g>
				<path style="&st0;" d="M32.6,32.1c0,0.8-0.7,1.5-1.5,1.5H14.3c-0.8,0-1.5-0.7-1.5-1.5V11.4c0-0.8,0.7-1.5,1.5-1.5h8.4v8.4
					c0,0.8,0.7,1.5,1.5,1.5h8.4V32.1z M28.6,24.2c0-0.3-0.2-0.5-0.5-0.5H17.3c-0.3,0-0.5,0.2-0.5,0.5v1c0,0.3,0.2,0.5,0.5,0.5h10.9
					c0.3,0,0.5-0.2,0.5-0.5V24.2z M28.6,28.1c0-0.3-0.2-0.5-0.5-0.5H17.3c-0.3,0-0.5,0.2-0.5,0.5v1c0,0.3,0.2,0.5,0.5,0.5h10.9
					c0.3,0,0.5-0.2,0.5-0.5V28.1z M24.7,17.8V9.9c3.4,1,6.9,5.1,7.9,7.9H24.7z"/>
			</g>
		</g>
	</g>
	<g>
		<path style="&st0;" d="M71.5,22.9c0,1.1-0.2,2.1-0.5,3.1c-0.3,1-0.9,1.9-1.6,2.6c-0.8,0.8-1.7,1.4-3,1.8c-1.2,0.5-2.8,0.7-4.6,0.7
			h-1.2V40h-5.3V15.1h6.9c1.6,0,3,0.2,4.1,0.5c1.2,0.4,2.1,0.9,2.9,1.5c0.8,0.7,1.3,1.5,1.7,2.4C71.4,20.6,71.5,21.7,71.5,22.9z
			 M60.7,26.9h1c1.5,0,2.6-0.3,3.4-0.9c0.8-0.6,1.1-1.5,1.1-2.9c0-1.2-0.3-2.1-1-2.7c-0.7-0.6-1.7-0.9-3.2-0.9h-1.3V26.9z"/>
		<path style="&st0;" d="M90.8,30.5c0,1.6-0.2,3-0.6,4.2c-0.4,1.2-1,2.3-1.7,3.1c-0.8,0.8-1.7,1.5-2.8,1.9c-1.1,0.4-2.3,0.7-3.6,0.7
			c-1.3,0-2.4-0.2-3.5-0.7c-1.1-0.4-2-1.1-2.7-1.9c-0.8-0.8-1.4-1.9-1.8-3.1c-0.4-1.2-0.6-2.6-0.6-4.2c0-1.6,0.2-3,0.6-4.2
			c0.4-1.2,1-2.3,1.7-3.1c0.8-0.8,1.7-1.5,2.7-1.9c1.1-0.4,2.3-0.6,3.7-0.6c1.3,0,2.4,0.2,3.5,0.6c1.1,0.4,2,1.1,2.7,1.9
			c0.8,0.8,1.4,1.9,1.8,3.1C90.6,27.5,90.8,28.9,90.8,30.5z M78.7,30.5c0,1.9,0.3,3.3,0.8,4.3c0.5,1,1.4,1.4,2.6,1.4
			c1.2,0,2.1-0.5,2.6-1.4c0.5-1,0.8-2.4,0.8-4.3c0-1.9-0.3-3.3-0.8-4.2c-0.5-0.9-1.4-1.4-2.6-1.4c-1.2,0-2,0.5-2.6,1.4
			C79,27.2,78.7,28.6,78.7,30.5z"/>
		<path style="&st0;" d="M93.8,16.1c0-0.5,0.1-0.9,0.2-1.2c0.1-0.3,0.3-0.6,0.6-0.8c0.3-0.2,0.6-0.3,0.9-0.4
			c0.3-0.1,0.7-0.1,1.1-0.1c0.4,0,0.7,0,1.1,0.1c0.3,0.1,0.6,0.2,0.9,0.4c0.3,0.2,0.5,0.5,0.6,0.8c0.2,0.3,0.2,0.7,0.2,1.2
			c0,0.5-0.1,0.9-0.2,1.2c-0.2,0.3-0.4,0.6-0.6,0.8c-0.3,0.2-0.6,0.3-0.9,0.4c-0.3,0.1-0.7,0.1-1.1,0.1c-0.4,0-0.8,0-1.1-0.1
			c-0.3-0.1-0.6-0.2-0.9-0.4c-0.3-0.2-0.5-0.5-0.6-0.8C93.9,17,93.8,16.6,93.8,16.1z M99.2,40h-5.2V21h5.2V40z"/>
		<path style="&st0;" d="M119.9,40h-5.2V28.9c0-1.4-0.2-2.4-0.6-3.1c-0.4-0.7-1.1-1-2-1c-0.7,0-1.2,0.1-1.7,0.4
			c-0.5,0.3-0.8,0.7-1.1,1.2c-0.3,0.5-0.5,1.2-0.6,2c-0.1,0.8-0.2,1.7-0.2,2.7v9h-5.2V21h4l0.7,2.4h0.3c0.3-0.5,0.6-0.9,1-1.3
			c0.4-0.4,0.8-0.6,1.3-0.9c0.5-0.2,1-0.4,1.5-0.5c0.5-0.1,1.1-0.2,1.6-0.2c0.9,0,1.8,0.1,2.5,0.4c0.8,0.3,1.4,0.7,2,1.3
			c0.5,0.6,1,1.3,1.3,2.2c0.3,0.9,0.4,1.9,0.4,3.2V40z"/>
		<path style="&st0;" d="M131.8,36.2c0.5,0,1-0.1,1.5-0.2c0.5-0.1,0.9-0.3,1.4-0.4v3.9c-0.5,0.2-1.1,0.5-1.8,0.6
			c-0.7,0.2-1.5,0.2-2.4,0.2c-0.8,0-1.6-0.1-2.3-0.3c-0.7-0.2-1.3-0.5-1.9-1c-0.5-0.5-0.9-1.1-1.2-1.9c-0.3-0.8-0.4-1.8-0.4-3.1
			v-9.2h-2.5v-2.2L125,21l1.5-4h3.3v4h4.6v3.9h-4.6v9.2c0,0.7,0.2,1.3,0.5,1.6C130.7,36.1,131.2,36.2,131.8,36.2z"/>
		<path style="&st3;" d="M151.9,33.1c0,1.1-0.2,2.1-0.6,3c-0.4,0.9-0.9,1.6-1.7,2.3c-0.7,0.6-1.6,1.1-2.7,1.5
			c-1.1,0.3-2.3,0.5-3.6,0.5c-1.2,0-2.4-0.1-3.5-0.4c-1.1-0.2-2.2-0.6-3.1-1.1V34c0.5,0.3,1.1,0.5,1.7,0.8c0.6,0.2,1.1,0.5,1.7,0.7
			c0.6,0.2,1.1,0.3,1.7,0.5c0.6,0.1,1.1,0.2,1.7,0.2c0.6,0,1.1-0.1,1.5-0.2c0.4-0.1,0.7-0.3,1-0.5c0.3-0.2,0.4-0.5,0.6-0.8
			c0.1-0.3,0.2-0.7,0.2-1.1c0-0.5-0.1-0.9-0.3-1.2c-0.2-0.4-0.5-0.7-0.8-1c-0.4-0.3-0.8-0.6-1.3-0.9c-0.5-0.3-1.1-0.6-1.7-0.9
			c-0.5-0.3-1.1-0.6-1.8-1c-0.6-0.4-1.3-0.9-1.8-1.4c-0.6-0.6-1.1-1.3-1.4-2.1c-0.4-0.8-0.6-1.8-0.6-2.9c0-1.1,0.2-2.1,0.6-3
			c0.4-0.9,0.9-1.6,1.6-2.2c0.7-0.6,1.5-1.1,2.5-1.4c1-0.3,2.1-0.5,3.3-0.5c0.6,0,1.2,0,1.8,0.1c0.6,0.1,1.1,0.2,1.7,0.3
			c0.6,0.1,1.1,0.3,1.7,0.5c0.6,0.2,1.2,0.5,1.8,0.7l-1.7,4.1c-0.5-0.2-1-0.4-1.4-0.6c-0.4-0.2-0.9-0.3-1.3-0.5
			c-0.4-0.1-0.8-0.2-1.2-0.3c-0.4-0.1-0.8-0.1-1.2-0.1c-0.9,0-1.6,0.2-2,0.7c-0.5,0.5-0.7,1.1-0.7,1.9c0,0.4,0.1,0.8,0.2,1.1
			c0.1,0.3,0.4,0.6,0.7,0.9c0.3,0.3,0.7,0.6,1.2,0.9c0.5,0.3,1.1,0.6,1.8,1c0.9,0.5,1.6,0.9,2.3,1.4c0.7,0.5,1.3,1,1.8,1.6
			c0.5,0.6,0.9,1.2,1.2,1.9C151.8,31.3,151.9,32.1,151.9,33.1z"/>
		<path style="&st3;" d="M163.6,40.4c-1.4,0-2.6-0.2-3.8-0.6c-1.1-0.4-2.1-1-3-1.8c-0.8-0.8-1.5-1.8-1.9-3c-0.5-1.2-0.7-2.7-0.7-4.3
			c0-1.7,0.2-3.1,0.6-4.4c0.4-1.2,1-2.3,1.8-3.1c0.8-0.8,1.7-1.5,2.7-1.9c1.1-0.4,2.2-0.6,3.5-0.6c1.3,0,2.4,0.2,3.4,0.6
			c1,0.4,1.9,0.9,2.6,1.7c0.7,0.7,1.3,1.6,1.6,2.7c0.4,1.1,0.6,2.3,0.6,3.7v2.5h-11.6c0,0.7,0.1,1.4,0.3,2c0.2,0.6,0.5,1.1,0.9,1.5
			c0.4,0.4,0.8,0.7,1.4,0.9c0.5,0.2,1.2,0.3,1.8,0.3c0.6,0,1.1,0,1.6-0.1c0.5-0.1,1-0.2,1.5-0.3c0.5-0.1,1-0.3,1.4-0.5
			c0.5-0.2,1-0.4,1.5-0.7v4c-0.5,0.2-0.9,0.4-1.4,0.6c-0.5,0.2-0.9,0.3-1.5,0.4c-0.5,0.1-1.1,0.2-1.7,0.2
			C165,40.3,164.3,40.4,163.6,40.4z M163,24.3c-0.9,0-1.7,0.3-2.3,1c-0.6,0.6-1,1.7-1,3h6.6c0-0.6-0.1-1.1-0.2-1.6
			c-0.1-0.5-0.3-0.9-0.6-1.3c-0.3-0.4-0.6-0.6-1-0.8C164,24.4,163.5,24.3,163,24.3z"/>
		<path style="&st3;" d="M184.4,20.6c0.1,0,0.3,0,0.5,0c0.2,0,0.3,0,0.5,0c0.2,0,0.3,0,0.4,0.1c0.1,0,0.2,0,0.3,0.1v4.9
			c-0.1,0-0.2,0-0.4-0.1c-0.2,0-0.3,0-0.5-0.1c-0.2,0-0.3,0-0.5,0c-0.2,0-0.3,0-0.4,0c-0.7,0-1.3,0.1-1.8,0.3
			c-0.6,0.2-1,0.4-1.4,0.8c-0.4,0.4-0.7,0.9-0.9,1.5c-0.2,0.6-0.3,1.4-0.3,2.3V40h-5.2V21h3.9l0.8,2.9h0.3c0.3-0.5,0.6-0.9,0.9-1.3
			c0.3-0.4,0.7-0.7,1.1-1c0.4-0.3,0.8-0.5,1.3-0.6C183.2,20.7,183.7,20.6,184.4,20.6z"/>
		<path style="&st3;" d="M193.8,40l-6.7-19h5.4l3.1,10.8c0.2,0.6,0.4,1.3,0.5,2c0.1,0.7,0.2,1.3,0.3,1.9h0.1c0-0.6,0.1-1.2,0.3-1.9
			c0.1-0.7,0.3-1.3,0.5-2l3.1-10.8h5.4l-6.7,19H193.8z"/>
	</g>
</g>
</svg>
